<svg width="25" height="24" viewBox="0 0 25 24" fill="none" xmlns="http://www.w3.org/2000/svg">
<g clip-path="url(#clip0_2123_2116)">
<path d="M4.16699 7C4.16699 6.46957 4.38649 5.96086 4.77719 5.58579C5.16789 5.21071 5.69779 5 6.25033 5H18.7503C19.3029 5 19.8328 5.21071 20.2235 5.58579C20.6142 5.96086 20.8337 6.46957 20.8337 7V19C20.8337 19.5304 20.6142 20.0391 20.2235 20.4142C19.8328 20.7893 19.3029 21 18.7503 21H6.25033C5.69779 21 5.16789 20.7893 4.77719 20.4142C4.38649 20.0391 4.16699 19.5304 4.16699 19V7Z" stroke="#4A4A4A" stroke-width="1.5" stroke-linecap="round" stroke-linejoin="round"/>
<path d="M16.667 3V7" stroke="#4A4A4A" stroke-width="1.5" stroke-linecap="round" stroke-linejoin="round"/>
<path d="M8.33301 3V7" stroke="#4A4A4A" stroke-width="1.5" stroke-linecap="round" stroke-linejoin="round"/>
<path d="M4.16699 11H20.8337" stroke="#4A4A4A" stroke-width="1.5" stroke-linecap="round" stroke-linejoin="round"/>
</g>
<defs>
<clipPath id="clip0_2123_2116">
<rect width="25" height="24" fill="white"/>
</clipPath>
</defs>
</svg>
