<svg version="1.2" xmlns="http://www.w3.org/2000/svg" viewBox="0 0 312 220" width="312" height="220">
	<defs>
		<clipPath clipPathUnits="userSpaceOnUse" id="cp1">
			<path d="m-5.86 0.47h316.77c5.08 0 9.19 4.11 9.19 9.18v211.19c0 5.07-4.11 9.18-9.19 9.18h-316.77c-5.08 0-9.19-4.11-9.19-9.18v-211.19c0-5.07 4.11-9.18 9.19-9.18z"/>
		</clipPath>
		<clipPath clipPathUnits="userSpaceOnUse" id="cp2">
			<path d="m576.04-66.1v242.17h-625.52v-242.17z"/>
		</clipPath>
	</defs>
	<style>
		.s0 { fill: #ffffff } 
		.s1 { opacity: .5;fill: none;stroke: #c530c5;stroke-width: .5 } 
		.s2 { fill: none;stroke: #fee7fe } 
	</style>
	<g>
		<g id="Clip-Path" clip-path="url(#cp1)">
			<g>
				<path fill-rule="evenodd" class="s0" d="m-5.86 0.47h316.77c5.08 0 9.19 4.11 9.19 9.18v211.19c0 5.07-4.11 9.18-9.19 9.18h-316.77c-5.08 0-9.19-4.11-9.19-9.18v-211.19c0-5.07 4.11-9.18 9.19-9.18z"/>
				<g id="Clip-Path" clip-path="url(#cp2)">
					<g style="opacity: .4">
						<g style="opacity: .5">
							<path fill-rule="evenodd" class="s1" d="m471.56 654.56c-65.71 47.26-144.81 87.69-228.36 62.93-79.97-23.71-124.45-110.11-174.03-182.21-46.84-68.12-93.76-136.05-99.41-215.46-6.8-95.59-11.94-215.91 65.76-257.87 77.1-41.63 168.25 64.44 259.58 82.19 95.44 18.54 203.37-51.08 275.93 21.88 73.65 74.05 54.33 194.94 34.85 290.6-17.2 84.45-67.84 150.12-134.32 197.94z"/>
							<path fill-rule="evenodd" class="s1" d="m461.28 640.65c-65.71 47.26-144.8 87.7-228.36 62.93-79.97-23.71-124.45-110.11-174.02-182.2-46.84-68.12-93.77-136.06-99.42-215.46-6.79-95.6-11.93-215.92 65.76-257.88 77.1-41.63 168.25 64.44 259.59 82.19 95.44 18.55 203.37-51.07 275.92 21.88 73.66 74.06 54.33 194.94 34.85 290.6-17.19 84.46-67.84 150.12-134.32 197.94z"/>
							<path fill-rule="evenodd" class="s1" d="m451.02 626.66c-65.71 47.26-144.81 87.7-228.36 62.93-79.97-23.7-124.46-110.11-174.03-182.2-46.84-68.12-93.77-136.05-99.41-215.46-6.8-95.6-11.94-215.92 65.76-257.87 77.09-41.64 168.24 64.43 259.58 82.18 95.44 18.55 203.37-51.07 275.93 21.88 73.65 74.06 54.32 194.94 34.85 290.6-17.2 84.46-67.85 150.12-134.32 197.94z"/>
							<path fill-rule="evenodd" class="s1" d="m440.75 612.74c-65.71 47.27-144.8 87.7-228.36 62.93-79.97-23.7-124.45-110.1-174.03-182.2-46.84-68.12-93.76-136.05-99.41-215.46-6.8-95.59-11.94-215.91 65.76-257.87 77.1-41.63 168.24 64.44 259.58 82.18 95.44 18.55 203.37-51.07 275.93 21.89 73.65 74.05 54.33 194.94 34.85 290.59-17.2 84.46-67.84 150.13-134.32 197.94z"/>
							<path fill-rule="evenodd" class="s1" d="m430.48 598.81c-65.71 47.26-144.8 87.7-228.36 62.93-79.97-23.71-124.45-110.11-174.02-182.2-46.84-68.12-93.77-136.05-99.42-215.46-6.79-95.6-11.93-215.92 65.76-257.87 77.1-41.64 168.25 64.43 259.58 82.18 95.45 18.55 203.37-51.07 275.93 21.88 73.65 74.06 54.33 194.94 34.85 290.6-17.19 84.46-67.84 150.12-134.32 197.94z"/>
							<path fill-rule="evenodd" class="s1" d="m420.26 584.87c-65.71 47.26-144.8 87.69-228.36 62.93-79.97-23.71-124.45-110.11-174.03-182.21-46.84-68.12-93.76-136.05-99.41-215.46-6.8-95.59-11.94-215.91 65.76-257.87 77.1-41.63 168.25 64.44 259.58 82.19 95.45 18.54 203.37-51.08 275.93 21.88 73.65 74.05 54.33 194.94 34.85 290.6-17.2 84.45-67.84 150.12-134.32 197.94z"/>
							<path fill-rule="evenodd" class="s1" d="m410 570.92c-65.71 47.27-144.8 87.7-228.36 62.93-79.97-23.7-124.45-110.1-174.02-182.2-46.85-68.12-93.77-136.05-99.42-215.46-6.79-95.59-11.93-215.91 65.76-257.87 77.1-41.63 168.25 64.43 259.58 82.18 95.45 18.55 203.37-51.07 275.93 21.88 73.65 74.06 54.33 194.95 34.85 290.6-17.19 84.46-67.84 150.13-134.32 197.94z"/>
							<path fill-rule="evenodd" class="s1" d="m399.72 556.95c-65.7 47.27-144.8 87.7-228.35 62.93-79.97-23.7-124.46-110.11-174.03-182.2-46.84-68.12-93.77-136.05-99.41-215.46-6.8-95.6-11.94-215.91 65.76-257.87 77.09-41.63 168.24 64.43 259.58 82.18 95.44 18.55 203.37-51.07 275.93 21.88 73.65 74.06 54.32 194.95 34.85 290.6-17.2 84.46-67.85 150.13-134.33 197.94z"/>
						</g>
					</g>
				</g>
			</g>
		</g>
		<path fill-rule="evenodd" class="s2" d="m-5.86 1.04h316.77c4.76 0 8.61 3.86 8.61 8.61v211.19c0 4.75-3.85 8.6-8.61 8.6h-316.77c-4.76 0-8.61-3.85-8.61-8.6v-211.19c0-4.75 3.85-8.61 8.61-8.61z"/>
	</g>
</svg>