<svg width="960" height="322" viewBox="0 0 960 322" fill="none" xmlns="http://www.w3.org/2000/svg">
<g opacity="0.6">
<g clip-path="url(#clip0_25_3982)">
<g clip-path="url(#clip1_25_3982)">
<mask id="mask0_25_3982" style="mask-type:alpha" maskUnits="userSpaceOnUse" x="-833" y="-435" width="1880" height="1556">
<path d="M254.982 286.744C254.982 434.004 157.617 553.382 37.5118 553.382C-82.5938 553.382 -833 36.8844 -833 -110.375C-833 -257.635 245.188 -54.9048 365.293 -54.9048C485.399 -54.9048 254.982 139.484 254.982 286.744Z" fill="#791A79"/>
<path d="M510.266 107.095C834.332 399.784 684.633 252.696 962.977 245.285C1006.64 253.697 1080.77 254.097 1027.96 188.405C961.94 106.291 983.217 48.2928 900.714 -41.1713C818.212 -130.635 767.968 -221.529 643.412 -363.819C518.856 -506.109 509.274 -388.815 368.854 -399.935C228.433 -411.054 292.479 -393.396 98.7351 -186.939C-95.009 19.5179 186.2 -185.593 510.266 107.095Z" fill="#FEE7FE"/>
<path d="M357.875 683.613C-75.8053 734.672 133.471 718.913 -44.2879 933.232C-79.3773 960.547 -128.502 1016.06 -44.2879 1019.59C60.9804 1024 90.6068 1078.21 212.264 1075.06C333.921 1071.91 435.408 1093.97 624.512 1093.97C813.617 1093.97 731.672 1009.5 832.527 911.169C933.383 812.835 877.913 849.395 850.177 567.629C822.442 285.863 791.555 632.555 357.875 683.613Z" fill="#D9D9D9"/>
</mask>
<g mask="url(#mask0_25_3982)">
<line opacity="0.7" x1="-457.795" y1="205.811" x2="1053.78" y2="205.811" stroke="#FBCFFB" stroke-width="1.2607"/>
<line opacity="0.7" x1="-457.795" y1="44.44" x2="1053.78" y2="44.44" stroke="#FBCFFB" stroke-width="1.2607"/>
<line opacity="0.7" x1="-457.795" y1="125.126" x2="1053.78" y2="125.126" stroke="#FBCFFB" stroke-width="1.2607"/>
<line opacity="0.7" x1="-457.795" y1="286.493" x2="1053.78" y2="286.493" stroke="#FBCFFB" stroke-width="1.2607"/>
<line opacity="0.7" x1="234.96" y1="-145.295" x2="234.96" y2="1022.11" stroke="#FBCFFB" stroke-width="1.2607"/>
<line opacity="0.7" x1="557.697" y1="-145.295" x2="557.697" y2="1022.11" stroke="#FBCFFB" stroke-width="1.2607"/>
<line opacity="0.7" x1="880.437" y1="-145.295" x2="880.437" y2="1022.11" stroke="#FBCFFB" stroke-width="1.2607"/>
<line opacity="0.7" x1="396.326" y1="-145.295" x2="396.326" y2="1022.11" stroke="#FBCFFB" stroke-width="1.2607"/>
<line opacity="0.7" x1="73.5913" y1="-145.295" x2="73.5912" y2="1022.11" stroke="#FBCFFB" stroke-width="1.2607"/>
<line opacity="0.7" x1="719.068" y1="-145.295" x2="719.068" y2="1022.11" stroke="#FBCFFB" stroke-width="1.2607"/>
<line opacity="0.7" x1="315.644" y1="-145.295" x2="315.644" y2="1022.11" stroke="#FBCFFB" stroke-width="1.2607"/>
<line opacity="0.7" x1="638.384" y1="-145.295" x2="638.384" y2="1022.11" stroke="#FBCFFB" stroke-width="1.2607"/>
<line opacity="0.7" x1="477.013" y1="-145.295" x2="477.013" y2="1022.11" stroke="#FBCFFB" stroke-width="1.2607"/>
<line opacity="0.7" x1="154.273" y1="-145.295" x2="154.273" y2="1022.11" stroke="#FBCFFB" stroke-width="1.2607"/>
<line opacity="0.7" x1="799.749" y1="-145.295" x2="799.749" y2="1022.11" stroke="#FBCFFB" stroke-width="1.2607"/>
<g opacity="0.7">
<rect opacity="0.13" x="880.582" y="125.982" width="80.2262" height="79.0801" fill="#9F269F"/>
<rect opacity="0.2" x="-5.8125" y="44.7578" width="80.2262" height="79.0801" fill="#F9BEF9"/>
<rect opacity="0.2" x="800.211" y="206.209" width="80.2262" height="79.0801" fill="#791A79"/>
<rect opacity="0.3" x="800.211" y="125.982" width="80.2262" height="79.0801" fill="#F8B1F8"/>
<g opacity="0.3">
<rect opacity="0.5" x="557.984" y="-35.615" width="80.2262" height="80.2262" fill="#F68DF6"/>
<rect x="476.881" y="-36.7615" width="80.2262" height="81.3723" fill="#F68DF6"/>
</g>
</g>
</g>
</g>
<rect opacity="0.2" x="236.188" y="45.7578" width="80.2262" height="79.0801" fill="#F9BEF9"/>
<rect opacity="0.1" x="154.816" y="125.982" width="80.2262" height="79.0801" fill="#F9BEF9"/>
<rect opacity="0.5" x="154.816" y="45.7578" width="80.2262" height="79.0801" fill="#FBCFFB"/>
</g>
<path d="M16 0.337891H944C952.65 0.337891 959.662 7.35007 959.662 16V306C959.662 314.65 952.65 321.662 944 321.662H16C7.35007 321.662 0.337891 314.65 0.337891 306V16C0.337891 7.35007 7.35007 0.337891 16 0.337891Z" stroke="#E3E3E3" stroke-width="0.675843"/>
</g>
<defs>
<clipPath id="clip0_25_3982">
<path d="M0 16C0 7.16343 7.16344 0 16 0H944C952.837 0 960 7.16344 960 16V306C960 314.837 952.837 322 944 322H16C7.16343 322 0 314.837 0 306V16Z" fill="white"/>
</clipPath>
<clipPath id="clip1_25_3982">
<rect width="1440" height="1024" fill="white" transform="translate(-325.5 -81)"/>
</clipPath>
</defs>
</svg>
