<svg width="32" height="32" viewBox="0 0 32 32" fill="none" xmlns="http://www.w3.org/2000/svg">
<g clip-path="url(#clip0_2316_968)">
<path d="M13.8658 8.5325C13.8658 7.96671 14.0906 7.42409 14.4907 7.02401C14.8907 6.62393 15.4334 6.39917 15.9992 6.39917C16.565 6.39917 17.1076 6.62393 17.5076 7.02401C17.9077 7.42409 18.1325 7.96671 18.1325 8.5325C19.3575 9.11173 20.4017 10.0134 21.1533 11.1408C21.905 12.2683 22.3356 13.579 22.3992 14.9325V18.1325C22.4794 18.7957 22.7143 19.4307 23.0848 19.9865C23.4554 20.5423 23.9512 21.0033 24.5325 21.3325H7.46582C8.04709 21.0033 8.54295 20.5423 8.91349 19.9865C9.28402 19.4307 9.51888 18.7957 9.59915 18.1325V14.9325C9.66268 13.579 10.0933 12.2683 10.845 11.1408C11.5966 10.0134 12.6409 9.11173 13.8658 8.5325Z" stroke="#4A4A4A" stroke-width="1.5" stroke-linecap="round" stroke-linejoin="round"/>
<path d="M12.7988 21.3325V22.3992C12.7988 23.2479 13.136 24.0618 13.7361 24.6619C14.3362 25.262 15.1501 25.5992 15.9988 25.5992C16.8475 25.5992 17.6615 25.262 18.2616 24.6619C18.8617 24.0618 19.1988 23.2479 19.1988 22.3992V21.3325" stroke="#4A4A4A" stroke-width="1.5" stroke-linecap="round" stroke-linejoin="round"/>
</g>
<rect x="16" width="16" height="16" rx="8" fill="#E51C00"/>
<path d="M23.543 12.1136C23.0344 12.1136 22.5771 12.0162 22.1713 11.8214C21.7681 11.6239 21.4462 11.3534 21.2054 11.0097C20.9646 10.6661 20.836 10.2738 20.8198 9.83279H22.0373C22.0671 10.1899 22.2254 10.4835 22.5122 10.7135C22.799 10.9435 23.1426 11.0584 23.543 11.0584C23.8623 11.0584 24.145 10.9854 24.3912 10.8393C24.6402 10.6905 24.835 10.4862 24.9756 10.2265C25.119 9.96672 25.1907 9.67045 25.1907 9.33766C25.1907 8.99946 25.1177 8.69778 24.9716 8.43263C24.8255 8.16748 24.6239 7.95915 24.3669 7.80763C24.1126 7.65611 23.8203 7.579 23.4903 7.5763C23.2386 7.5763 22.9857 7.61959 22.7313 7.70617C22.477 7.79275 22.2714 7.90639 22.1144 8.04708L20.9659 7.87662L21.4326 3.68831H26.0024V4.7638H22.4756L22.2119 7.08929H22.2606C22.4229 6.93236 22.638 6.80114 22.9058 6.69562C23.1764 6.5901 23.4659 6.53734 23.7744 6.53734C24.2803 6.53734 24.7308 6.65774 25.1258 6.89854C25.5235 7.13934 25.836 7.46807 26.0633 7.88474C26.2933 8.2987 26.4069 8.77489 26.4042 9.31331C26.4069 9.85173 26.2852 10.332 26.039 10.7541C25.7955 11.1761 25.4573 11.5089 25.0244 11.7524C24.5942 11.9932 24.1004 12.1136 23.543 12.1136Z" fill="#FFFBFB"/>
<defs>
<clipPath id="clip0_2316_968">
<rect width="25.6" height="25.6" fill="white" transform="translate(3.19922 3.19922)"/>
</clipPath>
</defs>
</svg>
